<?xml version="1.0" standalone="no"?>
<!DOCTYPE svg PUBLIC "-//W3C//DTD SVG 1.1//EN" "http://www.w3.org/Graphics/SVG/1.1/DTD/svg11.dtd" >
<!--
2013-9-30: Created.
-->
<svg>
<metadata>
Created by iconfont
</metadata>
<defs>

<font id="iconfont" horiz-adv-x="1024" >
  <font-face
    font-family="iconfont"
    font-weight="500"
    font-stretch="normal"
    units-per-em="1024"
    ascent="896"
    descent="-128"
  />
    <missing-glyph />
    
    <glyph glyph-name="x" unicode="x" horiz-adv-x="1001"
d="M281 543q-27 -1 -53 -1h-83q-18 0 -36.5 -6t-32.5 -18.5t-23 -32t-9 -45.5v-76h912v41q0 16 -0.5 30t-0.5 18q0 13 -5 29t-17 29.5t-31.5 22.5t-49.5 9h-133v-97h-438v97zM955 310v-52q0 -23 0.5 -52t0.5 -58t-10.5 -47.5t-26 -30t-33 -16t-31.5 -4.5q-14 -1 -29.5 -0.5
t-29.5 0.5h-32l-45 128h-439l-44 -128h-29h-34q-20 0 -45 1q-25 0 -41 9.5t-25.5 23t-13.5 29.5t-4 30v167h911zM163 247q-12 0 -21 -8.5t-9 -21.5t9 -21.5t21 -8.5q13 0 22 8.5t9 21.5t-9 21.5t-22 8.5zM316 123q-8 -26 -14 -48q-5 -19 -10.5 -37t-7.5 -25t-3 -15t1 -14.5
t9.5 -10.5t21.5 -4h37h67h81h80h64h36q23 0 34 12t2 38q-5 13 -9.5 30.5t-9.5 34.5q-5 19 -11 39h-368zM336 498v228q0 11 2.5 23t10 21.5t20.5 15.5t34 6h188q31 0 51.5 -14.5t20.5 -52.5v-227h-327z" />
    

    
    <glyph glyph-name="chunshui" unicode="&#58894;" d="M512-127.68c-193.984 0-351.232 153.664-351.232 343.232 0 72.96 23.36 140.544 63.04 196.16L512.96 895.68l287.232-483.968c39.68-55.616 63.04-123.2 63.04-196.16 0-189.568-157.248-343.232-351.232-343.232z m238.848 274.624a32.064 32.064 0 0 1-31.616-25.92 96.576 96.576 0 0 0-70.4-68.224 31.744 31.744 0 0 1-26.432-30.912c0-17.28 14.464-31.872 32.128-31.872 25.536 0 56.512 17.728 82.56 42.88 26.496 25.664 45.888 60.032 45.888 82.624 0 17.28-14.464 31.424-32.128 31.424z"  horiz-adv-x="1024" />

    
    <glyph glyph-name="baocuncidan" unicode="&#58895;" d="M853.211429-126.756571h-682.422858c-93.476571 0-169.545143 76.8-169.545142 171.300571V723.382857c0 94.500571 76.068571 171.373714 169.545142 171.373714h682.422858c93.476571 0 169.545143-76.8 169.545142-171.373714v-678.765714c0-94.573714-76.068571-171.373714-169.545142-171.373714zM170.788571 827.977143c-57.051429 0-103.424-46.811429-103.424-104.521143v-678.765714c0-57.709714 46.372571-104.594286 103.424-104.594286h682.422858c57.051429 0 103.424 46.884571 103.424 104.594286V723.382857c0 57.709714-46.372571 104.594286-103.424 104.594286l-682.422858-0.073143z m668.233143-445.44H185.051429V894.683429h654.116571v-512.365715z m-587.922285 66.779428h521.801142V827.977143H251.099429v-378.660572zM609.28 729.526857h66.121143v-222.793143h-66.121143V729.526857z"  horiz-adv-x="1024" />

    
    <glyph glyph-name="daochu" unicode="&#58896;" d="M517.517319 895.986609c13.075521 0 24.103069-4.489787 33.082644-13.469362l232.681265-232.760033a44.897874 44.897874 0 0 0 13.469362-33.082644 45.134179 45.134179 0 0 0-46.473238-46.473239 44.897874 44.897874 0 0 0-33.082644 13.390594L563.990557 737.03238v-539.247102a44.897874 44.897874 0 0 0-13.626899-32.925108 44.897874 44.897874 0 0 0-32.925107-13.626898 44.897874 44.897874 0 0 0-32.925108 13.626898 44.897874 44.897874 0 0 0-13.705667 32.925108V737.03238L317.83993 583.591925a46.552007 46.552007 0 0 0-33.082644-13.390594 44.897874 44.897874 0 0 0-32.925108 13.626899 44.897874 44.897874 0 0 0-13.626899 32.925108c0 12.602912 4.489787 23.63046 13.390594 33.082644L484.434674 882.517247A44.897874 44.897874 0 0 0 517.517319 895.986609z m459.927524-651.649324a44.897874 44.897874 0 0 0 32.925108-13.626899 44.897874 44.897874 0 0 0 13.626898-32.925108v-186.129258c0-38.832723-13.390594-71.679063-40.329318-98.617787A133.984709 133.984709 0 0 0 885.364816-128H139.66626c-38.045041 0-71.048917 13.548131-98.93286 40.72316A136.977901 136.977901 0 0 0 0.01024 11.65602V197.785278a44.897874 44.897874 0 0 0 13.626899 32.925108 44.897874 44.897874 0 0 0 32.925108 13.626899 44.897874 44.897874 0 0 0 32.925108-13.626899 44.897874 44.897874 0 0 0 13.626898-32.925108v-186.129258a44.897874 44.897874 0 0 1 13.705667-32.925108 44.897874 44.897874 0 0 1 32.925108-13.626899h745.777325c12.602912 0 23.315387 4.489787 32.216194 13.626899a45.52802 45.52802 0 0 1 13.233057 32.925108V197.785278a44.897874 44.897874 0 0 0 13.626899 32.925108 44.897874 44.897874 0 0 0 32.925108 13.626899h-0.078768z"  horiz-adv-x="1024" />

    
    <glyph glyph-name="bianji" unicode="&#58897;" d="M880.64-88.064H215.552c-77.165714 0-142.482286 66.340571-142.482286 144.822857V678.034286C73.142857 756.516571 138.459429 822.857143 215.625143 822.857143h534.308571c17.846857 0 29.696-12.068571 29.696-30.134857 0-18.139429-11.849143-30.208-29.696-30.208H215.625143a85.577143 85.577143 0 0 1-83.090286-84.406857v-621.421715c0-48.274286 35.620571-84.406857 83.090286-84.406857h664.941714c47.542857 0 83.163429 36.132571 83.163429 84.406857V521.216c0 18.139429 11.849143 30.134857 29.622857 30.134857 17.846857 0 29.696-11.995429 29.696-30.134857v-464.457143c-5.851429-78.482286-65.316571-144.822857-142.482286-144.822857M471.478857 258.779429c-5.851429 0-17.773714 0-23.698286 6.070857a29.476571 29.476571 0 0 0 0 42.203428l522.459429 506.733715a28.379429 28.379429 0 0 0 41.545143 0 29.476571 29.476571 0 0 0 0-42.203429L489.325714 264.777143c0-6.070857-11.849143-6.070857-17.846857-6.070857"  horiz-adv-x="1097" />

    
    <glyph glyph-name="changyong" unicode="&#58898;" d="M1002.62784 452.992l-257.536-195.392 99.2-318.016a52.48 52.48 0 0 0 2.432-15.744c0-27.712-21.44-50.24-47.936-50.24a46.08 46.08 0 0 0-28.096 9.6v-0.064l-259.456 196.928-259.52-196.928a46.08 46.08 0 0 0-28.032-9.6c-26.496 0-48 22.592-48 50.304a52.48 52.48 0 0 0 2.432 15.744l99.2 318.016L19.84384 452.992A50.944 50.944 0 0 0 0.00384 493.76C0.00384 521.536 21.44384 544 47.93984 544h318.72L465.41184 860.48A48.256 48.256 0 0 0 511.23584 896c21.568 0 39.808-14.976 45.824-35.52L655.74784 544h318.72c26.496 0 48-22.464 48-50.24a50.944 50.944 0 0 0-19.84-40.768z"  horiz-adv-x="1024" />

    
    <glyph glyph-name="fenpi" unicode="&#58899;" d="M1011.028727 580.027057l-242.882273-242.809137a42.491599 42.491599 0 0 0-60.92169 0L465.146979 579.953922a42.491599 42.491599 0 0 0 0 60.994825L708.029252 883.026532a42.491599 42.491599 0 0 0 60.994825 0l242.00465-242.882273a41.467705 41.467705 0 0 0 0-60.117202zM386.234009-127.995612H42.936994A42.491599 42.491599 0 0 0 0.006583-85.065201V258.158679c0 23.988373 18.868903 42.930411 42.930411 42.930411H386.160874c23.988373 0 42.930411-18.942038 42.930411-42.930411v-343.297015A42.491599 42.491599 0 0 0 386.160874-127.995612z m0 514.945524H42.936994A42.491599 42.491599 0 0 0 0.006583 429.880322V773.177338c0 23.988373 18.868903 42.930411 42.930411 42.930411H386.160874c23.988373 0 42.930411-18.942038 42.930411-42.930411v-343.297016a42.491599 42.491599 0 0 0-42.930411-42.93041z m171.648508-85.787687h343.297016c23.988373 0 42.930411-18.942038 42.930411-42.93041v-343.297016a42.491599 42.491599 0 0 0-42.930411-42.930411H557.882517a42.491599 42.491599 0 0 0-42.930411 42.930411V258.158679c0 23.988373 18.868903 42.930411 42.930411 42.930411z"  horiz-adv-x="1024" />

    
    <glyph glyph-name="gongneng" unicode="&#58900;" d="M205.75071 281.600439A205.311853 205.311853 0 0 1 0 76.800585C0-36.278191 92.159934-127.999269 205.75071-127.999269a205.311853 205.311853 0 0 1 205.677568 204.799854c0 113.078776-92.159934 204.799854-205.677568 204.799854z m685.713796 0a205.311853 205.311853 0 0 1-205.75071-204.799854c0-113.078776 92.159934-204.799854 205.75071-204.799854A205.311853 205.311853 0 0 1 1097.142073 76.800585c0 113.078776-92.159934 204.799854-205.677567 204.799854z m-155.94046 62.975955c7.753137-9.289136 17.261702-15.65256 28.013694-15.65256h10.605707a65.901667 65.901667 0 0 1 16.822845 0h155.501603c25.161125 0 45.714253 30.50055 45.714253 68.242237s-20.479985 68.242237-45.714253 68.242237h-140.799899l-43.739397 38.765686a139.263901 139.263901 0 0 1-14.628561 180.297014 141.092471 141.092471 0 0 1-198.729001 0L349.768893 486.400293c-54.857104-54.710818-54.857104-143.359898 0-197.92443a140.434185 140.434185 0 0 1 130.194193-37.302831V76.800585c0-37.741687 30.719978-68.242237 68.607951-68.242237a68.388523 68.388523 0 0 1 68.607951 68.242237V349.842676c0 2.047999-1.023999 3.803426-1.170285 5.705139l50.395392 50.175964 69.119951-61.147385z m155.94046 278.381515a136.923331 136.923331 0 0 1 137.142759 136.484474c0 75.337089-61.439956 136.557617-137.142759 136.557617a136.923331 136.923331 0 0 1-137.215902-136.557617c0-75.337089 61.439956-136.484474 137.215902-136.484474z"  horiz-adv-x="1097" />

    
    <glyph glyph-name="jidan" unicode="&#58901;" d="M551.424 538.916571h224.109714L240.128-128l178.468571 469.577143H219.428571L418.596571 896H804.571429z"  horiz-adv-x="1024" />

    
    <glyph glyph-name="kuangquanshui" unicode="&#58902;" d="M822.565816 398.548614C766.262637 533.548282 687.182262 655.047984 602.471569 773.156699 573.104343 813.976505 542.201575 853.580673 510.339094 896c-16.890954-21.753501-32.438309-41.267671-47.473818-61.101746C380.841781 726.450653 304.384623 614.484103 241.491412 493.688191 215.451191 443.655138 191.970206 392.598391 175.655081 338.854447c-19.706113-73.961904-28.663437-174.028009 18.554456-271.023032 13.180062-25.912259 29.751112-50.288976 49.393244-73.386076a335.771688 335.771688 0 0 1 199.620364-115.677441c93.731998-16.954935 184.073008-0.959713 263.793191 53.42404 80.296012 54.767638 130.840911 131.928586 150.291101 227.58001 16.890954 83.175151-2.687197 162.063584-34.741621 238.776666z m-370.961175 227.132144c-25.97624-92.708303-53.552001-184.90476-77.800757-277.996949-14.075795-54.383753-22.265348-110.303047-17.082897-166.798169 5.310414-58.030663 17.786686-114.781709 36.149201-170.125175 1.599522-4.798566 2.559235-9.853056 5.11847-19.51417-31.350634 26.680029-64.620695 42.419327-87.653813 73.578019a306.98029 306.98029 0 0 0-54.063848 117.340944c-12.796177 58.222606-7.997611 116.637155 19.386208 170.061194 41.331652 80.615916 85.542444 159.696291 128.921485 239.288513 21.497578 39.412226 43.826907 78.440566 65.836331 117.660849l3.64691-0.767771c-7.421783-27.639743-14.715604-55.215504-22.39331-82.791266z"  horiz-adv-x="1024" />

    
    <glyph glyph-name="jixutianjia" unicode="&#58903;" d="M0 384c0-281.6 230.4-512 512-512s512 230.4 512 512-230.4 512-512 512-512-230.4-512-512z m960 0c0-246.418286-201.581714-448-448-448S64 137.581714 64 384 265.581714 832 512 832 960 630.418286 960 384zM230.4 409.6a43.300571 43.300571 0 0 1 0-54.418286l169.618286-207.945143c9.581714-12.873143 31.963429-16.091429 44.763428-3.218285 12.8 9.581714 16.018286 31.963429 3.218286 44.763428L316.781714 351.963429h496.054857c19.163429 0 31.963429 12.8 31.963429 32.036571 0 19.163429-12.8 31.963429-32.036571 31.963429h-495.908572L451.145143 579.291429c6.363429 6.363429 6.363429 12.8 6.363428 19.163428a29.110857 29.110857 0 0 1-12.8 25.6c-12.8 9.581714-35.181714 9.581714-44.763428-3.218286L230.4 409.6z"  horiz-adv-x="1024" />

    
    <glyph glyph-name="quanbufabu" unicode="&#58904;" d="M853.333333-59.733333H170.666667c-37.6832 0-68.266667 33.109333-68.266667 73.9328V753.800533C102.4 794.624 132.983467 827.733333 170.666667 827.733333h238.933333c18.8416 0 34.133333-16.5888 34.133333-37.000533 0-20.411733-15.291733-36.932267-34.133333-36.932267H170.666667v-739.601066h682.666666V273.066667c0 20.411733 15.291733 37.000533 34.133334 37.000533s34.133333-16.5888 34.133333-37.000533v-258.8672c0-40.823467-30.583467-73.9328-68.266667-73.9328zM975.121067 835.584l0.6144-322.7648c0-12.424533-4.5056-23.210667-13.653334-32.290133a44.373333 44.373333 0 0 0-64.512 0.136533 44.2368 44.2368 0 0 0-13.653333 32.290133l-0.136533 212.5824-322.901334-322.901333a43.895467 43.895467 0 0 0-32.221866-13.312 44.168533 44.168533 0 0 0-32.290134 13.448533 44.168533 44.168533 0 0 0-13.448533 32.290134c0 12.629333 4.437333 23.415467 13.312 32.290133l322.901333 322.901333-212.5824 0.068267a45.8752 45.8752 0 0 0-32.290133 13.653333 44.168533 44.168533 0 0 0-13.448533 32.3584c0 12.629333 4.437333 23.415467 13.312 32.290134a45.4656 45.4656 0 0 0 32.221866 13.585066l322.833067-0.546133c12.424533 0 23.210667-4.642133 32.290133-13.653333 9.079467-9.216 13.653333-20.002133 13.653334-32.426667z"  horiz-adv-x="1024" />

    
    <glyph glyph-name="queding" unicode="&#58905;" d="M506.85415 47.811834L121.235417 443.874834a69.628449 69.628449 0 0 1-100.346882 0 74.236214 74.236214 0 0 1 0-103.009146l435.996964-447.465179a69.833239 69.833239 0 0 1 100.346882 0l855.610764 878.240009A73.621845 73.621845 0 0 1 1433.52689 823.145092a73.519451 73.519451 0 0 1-20.78614 51.504573 69.628449 69.628449 0 0 1-100.346882 0L506.85415 47.811834z"  horiz-adv-x="1433" />

    
    <glyph glyph-name="daiban" unicode="&#58906;" d="M592.298667 193.706667c-77.226667 0.256-139.946667-63.317333-139.946667-141.824-0.256-78.506667 62.122667-142.421333 139.264-142.506667 77.141333-0.256 139.776 63.317333 139.861333 141.824 0.256 78.506667-62.122667 142.336-139.264 142.506667z m-0.512-200.106667a57.429333 57.429333 0 0 0-56.661334 58.026667 57.344 57.344 0 0 0 56.917334 57.770666 57.429333 57.429333 0 0 0 56.746666-58.026666 57.514667 57.514667 0 0 0-57.002666-57.770667z m563.712 161.536a125.952 125.952 0 0 1-125.44-126.976c-0.170667-70.4 55.722667-127.658667 124.757333-127.744 69.12-0.256 125.184 56.661333 125.269333 127.061333 0.256 70.4-55.466667 127.573333-124.586666 127.658667z m-0.426667-179.370667a51.626667 51.626667 0 0 0-51.114667 52.053334c0 28.842667 23.125333 52.138667 51.370667 52.053333 28.16 0 51.114667-23.466667 50.944-52.224 0-28.757333-23.04-52.053333-51.2-51.882667z m35.84 480.853334h-104.362667V827.648c0 37.802667-29.952 68.352-67.072 68.352H657.152c-42.325333 0-68.778667-28.330667-75.093333-68.266667L495.872 329.045333h-81.493333V773.461333a37.546667 37.546667 0 0 1-37.205334 37.888h-11.52a37.546667 37.546667 0 0 1-37.12-37.888v-693.162666l-293.376-6.144c-17.664 0-35.072-20.48-35.072-41.557334 0-20.736 16.725333-39.594667 34.901334-39.594666l342.101333-5.205334a37.546667 37.546667 0 0 1 37.290667 37.802667V247.893333h67.413333l-10.922667-63.402666a175.701333 175.701333 0 0 0 247.466667-4.949334 183.552 183.552 0 0 0 41.386667-188.757333H994.389333a170.922667 170.922667 0 0 0-4.096 37.461333c0 92.245333 73.984 167.424 164.693334 167.424 38.229333 0 73.984-13.056 102.912-36.693333V388.266667c0 37.717333-30.037333 68.266667-67.072 68.266666z m-183.978667 5.290666h-81.066666c-49.493333 0-89.770667-40.96-89.770667-91.306666v-50.602667H583.082667L662.954667 814.421333h343.978666v-352.426666z"  horiz-adv-x="1280" />

    
    <glyph glyph-name="querentianjia" unicode="&#58907;" d="M512 896C230.4 896 0 665.6 0 384s230.4-512 512-512 512 230.4 512 512-230.4 512-512 512z m0-960C265.581714-64 64 137.581714 64 384S265.581714 832 512 832 960 630.418286 960 384 758.418286-64 512-64zM537.6 665.6a43.300571 43.300571 0 0 1-54.418286 0L275.236571 495.981714c-12.8-9.581714-16.091429-31.963429-3.218285-44.763428 9.581714-12.8 31.963429-16.018286 44.763428-3.218286l163.181715 131.218286v-496.054857c0-19.163429 12.8-31.963429 32.036571-31.963429s32.036571 12.8 32.036571 32.036571v495.908572l163.108572-134.363429c6.436571-6.363429 12.873143-6.363429 19.236571-6.363428a29.110857 29.110857 0 0 1 25.6 12.8c9.581714 12.8 9.581714 35.181714-3.145143 44.763428L537.6 665.6z"  horiz-adv-x="1024" />

    
    <glyph glyph-name="querenxiadan" unicode="&#58908;" d="M254.831532 172.385033l0.511854-0.073122h2.193659c2.778635 0.292488 5.19166 1.243073 7.604684 2.193659 2.193659 0.219366 4.387318 0.584976 6.580977 0.584976h676.378178a27.713225 27.713225 0 0 1 26.543273 19.157954l121.016853 385.206513a27.055127 27.055127 0 0 1-18.353614 33.928592 27.859469 27.859469 0 0 1-34.732933-17.988004l-13.161954-41.972008a28.005713 28.005713 0 0 1-10.090831 3.656099l-18.792345 2.924878-91.036847 222.290774a27.932591 27.932591 0 0 1-33.928592 15.940589L628.70414 724.675236 537.301684 870.114824A27.786347 27.786347 0 0 1 515.95007 882.838046a28.298201 28.298201 0 0 1-23.179663-9.067123L305.72442 666.982005 243.57075 676.634105 229.604454 844.522137a27.420737 27.420737 0 0 1-23.399029 24.642102L32.028904 895.26878a27.493859 27.493859 0 0 1-31.66181-22.667809 27.201371 27.201371 0 0 1 23.179663-30.930591l152.386175-22.887175 49.796058-599.380749c-37.21908-16.525564-63.177378-52.062839-63.177378-93.449871 0-57.035133 48.991717-103.467581 109.171094-103.467581h12.065125a97.690945 97.690945 0 0 1-13.308198-48.552985c0-55.572694 46.213082-100.688946 103.028849-100.688946s103.028849 45.189374 103.028849 100.688946c0 17.695516-5.118538 34.074836-13.308198 48.552985h241.594973a97.690945 97.690945 0 0 1-13.308198-48.552985c0-55.572694 46.213082-100.688946 103.028849-100.688946s103.028849 45.189374 103.028849 100.688946c0 17.695516-5.118538 34.074836-13.38132 48.552985h63.835476c15.355613 0 27.786347 12.138246 27.786347 27.055127a27.420737 27.420737 0 0 1-27.786347 27.201371h-676.378178c-29.541274 0-53.5984 22.082833-53.5984 49.211083 0 21.644102 15.428735 39.851471 36.707226 46.432448z m118.750072-244.885461a47.017424 47.017424 0 0 0-47.529278 46.432447c0 25.592688 21.278492 46.432448 47.529278 46.432448 26.177664 0 47.529277-20.83976 47.529277-46.432448 0-25.592688-21.351614-46.432448-47.529277-46.432447z m421.036275 0a47.017424 47.017424 0 0 0-47.529277 46.432447c0 25.592688 21.278492 46.432448 47.529277 46.432448 26.177664 0 47.529277-20.83976 47.529277-46.432448 0-25.592688-21.351614-46.432448-47.529277-46.432447z m72.829477 811.580691l69.246501-169.27735-233.185947 35.829763-44.750642 71.220794 208.690088 62.153671zM509.588459 810.447301l121.821194-193.773208-260.606684 40.217081 138.78549 153.556127z m501.104827-307.112254l2.924879-0.146244-86.064553-273.914881H280.716708l-32.539275 391.568123L1010.620164 503.481291z"  horiz-adv-x="1097" />

    
    <glyph glyph-name="tianjiachanpin" unicode="&#58909;" d="M1024 384A512 512 0 1 1 512-128 512 512 0 0 1 1024 384zM68.292923 384A444.258462 444.258462 0 0 0 512 827.707077 444.258462 444.258462 0 0 0 955.707077 384 444.258462 444.258462 0 0 0 512-59.707077 444.258462 444.258462 0 0 0 68.292923 384zM753.270154 418.422154H546.422154V625.191385a34.500923 34.500923 0 0 1-68.923077 0v-206.690462H270.808615a34.500923 34.500923 0 0 1 0-68.923077h206.848v-206.769231a34.500923 34.500923 0 0 1 68.923077 0V349.499077h206.769231a34.500923 34.500923 0 0 1 0 68.923077z"  horiz-adv-x="1024" />

    
    <glyph glyph-name="sousuo" unicode="&#58910;" d="M917.056-64a50.432 50.432 0 0 0-14.336 2.24 32.256 32.256 0 0 0-12.16 6.72l-4.864 4.032-260.608 255.232-4.032-2.688c-60.48-41.6-128.96-62.72-203.712-62.72-7.68 0-15.232 0.448-22.848 0.896-7.68 0.448-15.232 1.792-22.848 3.2a334.784 334.784 0 0 0-145.536 51.904 334.72 334.72 0 0 0-114.624 118.656 317.696 317.696 0 0 0-32.256 72.512 340.544 340.544 0 0 0-9.856 158.528 312.768 312.768 0 0 0 45.248 120 329.92 329.92 0 0 0 88.192 94.976c30.016 23.232 64 41.152 101.184 53.76A352.896 352.896 0 0 0 418.24 832a364.736 364.736 0 0 0 162.56-38.976 337.728 337.728 0 0 0 96.256-71.68 337.28 337.28 0 0 0 73.408-115.456 337.92 337.92 0 0 0 21.952-135.232c-2.688-76.16-30.016-145.536-81.088-206.016l-3.584-4.032 259.264-252.992v-4.48h3.2a40 40 0 0 0 9.344-25.472 38.912 38.912 0 0 0-12.096-28.672 40.96 40.96 0 0 0-29.056-12.096l-1.344-0.896zM382.848 787.648a40.64 40.64 0 0 1-10.304-1.28l-5.824-0.96c-44.8-6.72-88.64-23.68-125.824-49.28a291.584 291.584 0 0 1-91.776-96.64 291.008 291.008 0 0 1-43.008-140.16c-2.688-51.52 7.168-99.84 29.12-143.744a300.16 300.16 0 0 1 80.128-103.424c34.048-28.224 74.368-49.28 117.312-60.928 28.224-7.616 56.448-11.648 84.672-11.648a317.12 317.12 0 0 1 185.856 60.928c19.648 14.336 37.12 30.4 53.248 48.32a294.4 294.4 0 0 1 39.808 59.52 291.2 291.2 0 0 1 33.152 121.856 280.64 280.64 0 0 1-21.504 124.032 287.488 287.488 0 0 1-37.12 68.032 330.496 330.496 0 0 1-54.656 57.344 308.8 308.8 0 0 1-67.584 41.6 316.224 316.224 0 0 1-129.92 27.776c-12.032 0.448-23.68 0-35.84-1.28z"  horiz-adv-x="1024" />

    
    <glyph glyph-name="tuichu" unicode="&#58911;" d="M1009.883429 411.648l-204.214858 196.681143a40.521143 40.521143 0 0 1-57.197714 0 37.083429 37.083429 0 0 1 0-55.076572l134.802286-129.755428H491.081143c-24.502857 0-40.886857-15.725714-40.886857-39.350857 0-23.625143 16.384-39.350857 40.886857-39.350857h392.192L748.470857 215.04a37.083429 37.083429 0 0 1 0-55.076571 37.741714 37.741714 0 0 1 28.525714-11.776c12.288 0 20.48 3.876571 28.672 11.776l204.214858 200.557714s0 3.949714 4.096 3.949714a31.597714 31.597714 0 0 1-4.096 47.177143M899.657143 108.836571c-24.576 0-40.96-15.725714-40.96-39.350857v-78.628571c0-23.625143-16.310857-39.350857-40.813714-39.350857H123.392c-24.502857 0-40.813714 15.725714-40.813714 39.350857V777.435429c0 23.625143 16.310857 39.350857 40.813714 39.350857h694.491429c24.502857 0 40.886857-15.725714 40.886857-39.350857v-78.628572c0-23.625143 16.310857-39.350857 40.813714-39.350857 24.502857 0 40.886857 15.725714 40.886857 39.350857V777.435429c0 66.852571-53.101714 117.979429-122.587428 117.979428H123.392C53.906286 895.414857 0.877714 844.288 0.877714 777.508571v-786.578285c0-66.852571 53.101714-117.979429 122.514286-117.979429h694.491429c69.485714 0 122.587429 51.126857 122.587428 117.979429V69.485714c0 23.625143-16.384 39.350857-40.886857 39.350857"  horiz-adv-x="1024" />

    
    <glyph glyph-name="daoruwenjian" unicode="&#58912;" d="M517.5213 151.23542a45.055757 45.055757 0 0 1 33.082898 13.469465l232.683055 232.761824a44.89822 44.89822 0 0 1 13.469466 33.082899 45.134526 45.134526 0 0 1-46.473596 46.473596 44.89822 44.89822 0 0 1-33.082899-13.390697L563.994895 310.190871V849.442121a44.89822 44.89822 0 0 1-13.627003 32.925362A44.89822 44.89822 0 0 1 517.5213 895.994486a44.89822 44.89822 0 0 1-32.925362-13.627003 44.89822 44.89822 0 0 1-13.705772-32.925362v-539.25125L317.842375 463.553738a46.552365 46.552365 0 0 1-33.082899 13.390697 44.89822 44.89822 0 0 1-32.925361-13.627004 44.89822 44.89822 0 0 1-13.627004-32.925361c0-12.603009 4.489822-23.630642 13.390697-33.082899L484.438401 164.704885a44.89822 44.89822 0 0 1 33.082899-13.469465z m459.931061 93.104729a44.89822 44.89822 0 0 0 32.925362-13.627004 44.89822 44.89822 0 0 0 13.627003-32.925361v-186.13069c0-38.833022-13.390697-71.679614-40.329629-98.618546A133.98574 133.98574 0 0 0 885.371627-128H139.667334c-38.045334 0-71.049464 13.548235-98.933621 40.723473A136.978955 136.978955 0 0 0 0.01024 11.657094V197.787784a44.89822 44.89822 0 0 0 13.627004 32.925361 44.89822 44.89822 0 0 0 32.925361 13.627004 44.89822 44.89822 0 0 0 32.925361-13.627004 44.89822 44.89822 0 0 0 13.627003-32.925361v-186.13069a44.89822 44.89822 0 0 1 13.705773-32.925361 44.89822 44.89822 0 0 1 32.925361-13.627004h745.783061c12.603009 0 23.315567 4.489822 32.216442 13.627004a45.52837 45.52837 0 0 1 13.23316 32.925361V197.787784a44.89822 44.89822 0 0 0 13.627003 32.925361 44.89822 44.89822 0 0 0 32.925361 13.627004h-0.078769z"  horiz-adv-x="1024" />

    
    <glyph glyph-name="xuanzefabu" unicode="&#58913;" d="M1050.939077-20.243692H219.766154a53.878154 53.878154 0 1 1 0-107.756308h831.251692a53.878154 53.878154 0 0 1 0 107.756308z m0 165.80923H219.766154a53.878154 53.878154 0 1 1 0-107.756307h831.251692a53.878154 53.878154 0 0 1 0 107.756307zM849.447385 826.289231l0.708923-372.420923c0-14.336-5.198769-26.781538-15.753846-37.257846a51.2 51.2 0 0 0-74.436924 0.157538 51.042462 51.042462 0 0 0-15.753846 37.257846l-0.157538 245.287385-372.578462-372.578462a50.648615 50.648615 0 0 0-37.179077-15.36 50.963692 50.963692 0 0 0-37.257846 15.517539 50.963692 50.963692 0 0 0-15.517538 37.257846c0 14.572308 5.12 27.017846 15.36 37.257846l372.578461 372.578462-245.287384 0.078769a52.932923 52.932923 0 0 0-37.257846 15.753846 50.963692 50.963692 0 0 0-15.517539 37.336615c0 14.572308 5.12 27.017846 15.36 37.257846a52.460308 52.460308 0 0 0 37.179077 15.675077l372.499692-0.630153c14.336 0 26.781538-5.356308 37.257846-15.753847 10.476308-10.633846 15.753846-23.079385 15.753847-37.415384zM0 91.766154a53.878154 53.878154 0 1 0 107.756308 0 53.878154 53.878154 0 0 0-107.756308 0z m0-165.809231a53.878154 53.878154 0 1 0 107.756308 0 53.878154 53.878154 0 0 0-107.756308 0z"  horiz-adv-x="1104" />

    
    <glyph glyph-name="feiyongfanhuan" unicode="&#58914;" d="M692.662857 670.72c36.571429-24.137143 84.114286-38.326857 118.637714-42.715429v-114.834285l210.797715 188.854857L811.300571 896v-127.268571c-25.892571-3.364571-59.684571-3.145143-85.723428 4.388571a358.765714 358.765714 0 0 0-52.224 19.821714 451.876571 451.876571 0 0 0-48.274286 26.550857 246.784 246.784 0 0 0-48.420571 39.497143c8.630857-62.902857 36.864-110.153143 63.853714-141.458285 15.798857-18.358857 32.621714-34.011429 52.077714-46.811429z m112.493714-536.576c0 231.131429-143.433143 477.476571-329.874285 531.968a73.362286 73.362286 0 0 1-1.901715 30.866286c45.348571 27.355429 75.849143 79.140571 75.849143 128.365714C549.229714 896.731429 485.156571 896 404.406857 896c-80.822857 0-147.748571 0.731429-147.748571-70.656 0-48.566857 31.012571-99.620571 76.214857-127.268571a72.777143 72.777143 0 0 1-2.486857-29.915429C141.677714 618.057143 0.731429 368.274286 0.731429 134.217143c0-261.851429 176.201143-259.145143 398.336-259.145143s406.089143-2.706286 406.089142 259.072zM465.627429 454.290286l51.2 51.053714a36.278857 36.278857 0 0 0 51.931428 0.219429 36.937143 36.937143 0 0 0-0.219428-51.785143l-51.2-51.053715a36.278857 36.278857 0 0 0-51.931429-0.292571 36.937143 36.937143 0 0 0 0.219429 51.858286z m-219.648 51.273143a36.278857 36.278857 0 0 0 51.931428-0.219429l51.2-51.053714c14.482286-14.409143 14.189714-38.034286 0.292572-51.858286a36.278857 36.278857 0 0 0-51.931429 0.292571l-51.2 51.053715a36.937143 36.937143 0 0 0-0.292571 51.785143zM549.376 166.765714c20.114286 0 36.425143-16.896 36.425143-36.498285a36.059429 36.059429 0 0 0-36.425143-36.425143H439.515429v-109.568a36.790857 36.790857 0 0 0-36.571429-36.278857 36.059429 36.059429 0 0 0-36.571429 36.278857v109.568H256.512a36.790857 36.790857 0 0 0-36.352 36.425143c0 20.187429 15.652571 36.498286 36.352 36.498285H366.445714v72.923429H256.512a36.790857 36.790857 0 0 0-36.352 36.425143c0 20.187429 15.652571 36.498286 36.352 36.498285h292.864c20.114286 0 36.425143-16.896 36.425143-36.498285a36.059429 36.059429 0 0 0-36.425143-36.425143H439.515429v-72.923429h109.860571zM819.931429 349.037714c15.36 20.918857 21.430857 48.932571 21.430857 70.070857 0 35.254857-21.284571 29.988571-56.612572 29.988572h-23.917714s234.276571-449.389714-56.246857-576.438857c141.385143 0 318.902857-13.750857 318.902857 127.049143 0 120.539429-117.028571 301.056-203.483429 349.330285"  horiz-adv-x="1024" />

    
    <glyph glyph-name="naicha" unicode="&#58915;" d="M1043.549091-96.069818c3.258182-9.867636 6.330182-18.990545 9.309091-27.368727a259.444364 259.444364 0 0 1-9.309091 27.368727zM1368.715636 891.438545s34.071273-75.589818-20.666181-131.072c-54.737455-55.482182-292.864-75.031273-360.913455-228.44509-21.317818-47.941818-31.650909-87.133091-36.119273-117.946182-38.539636 177.989818-132.933818 371.432727-403.083636 407.179636C243.060364 861.463273 215.970909 759.714909 0 769.396364c0 0 180.782545-41.704727 257.396364-219.694546 76.520727-178.082909 232.727273-461.824 554.542545-486.865454 129.117091-10.24 201.448727-62.557091 231.610182-158.999273-47.941818 184.040727-148.200727 618.309818-761.669818 832.232727 100.724364-11.170909 572.229818-47.197091 693.992727-503.994182-4.468364-53.806545 5.213091-132.189091 53.434182-249.483636 0 0-64.977455 192.046545-25.786182 246.597818 39.098182 54.458182 138.053818 59.857455 244.549818 96.535273 106.402909 36.584727 307.2 217.832727 219.415273 403.735273-61.812364 130.792727-98.676364 161.978182-98.676364 161.978181z m-176.034909-403.456c-63.115636-48.965818-177.245091-133.678545-198.004363-180.596363-7.447273-17.035636-15.173818-39.470545-18.338909-70.097455a1923.909818 1923.909818 0 0 1-13.498182 112.64 402.897455 402.897455 0 0 0 112.64 141.963637c64.977455 50.641455 201.821091 127.720727 294.539636 202.752-12.939636-46.545455-114.315636-157.789091-177.338182-206.661819z"  horiz-adv-x="1489" />

    
    <glyph glyph-name="shanchuc" unicode="&#58916;" d="M512-128A512 512 0 1 0 512 896a512 512 0 0 0 0-1024z m189.147429 617.910857a21.577143 21.577143 0 0 1-21.650286-20.918857v-312.905143c0-11.556571-9.508571-20.626286-21.065143-20.626286H365.714286a20.992 20.992 0 0 0-21.211429 20.626286v313.782857c0 11.556571-8.484571 20.918857-20.041143 20.918857-11.556571 0-20.041143-9.362286-20.041143-20.918857v-313.782857c0-34.523429 26.624-64.658286 61.147429-64.658286h292.571429a66.121143 66.121143 0 0 1 64.512 64.658286V468.992c0.146286 11.410286-9.947429 20.918857-21.504 20.918857z m-232.594286-250.294857V469.577143c0 11.556571-8.484571 20.918857-20.041143 20.918857-11.556571 0-20.041143-9.362286-20.041143-20.918857v-229.814857c0-11.556571 8.484571-20.918857 20.041143-20.918857a20.041143 20.041143 0 0 1 20.041143 20.772571z m126.829714 0V469.577143a21.650286 21.650286 0 0 1-21.650286 20.918857 21.650286 21.650286 0 0 1-21.650285-20.918857v-229.814857c0-11.556571 10.24-20.918857 21.650285-20.918857 11.410286 0 21.650286 9.216 21.650286 20.772571z m188.269714 333.531429H679.497143v42.569142c0 34.523429-28.233143 60.708571-62.464 60.708572L407.405714 676.571429c-34.523429 0-62.902857-26.185143-62.902857-60.708572v-42.715428H240.347429c-11.556571 0-20.918857-8.484571-20.918858-20.041143 0-11.556571 9.362286-20.041143 20.918858-20.041143h543.305142c11.556571 0 20.918857 8.484571 20.918858 20.041143 0 11.556571-9.362286 20.041143-20.918858 20.041143z m-147.748571 0H385.170286v42.569142c0 11.556571 10.825143 20.772571 22.381714 20.772572h209.481143c11.410286 0 19.017143-9.069714 19.017143-20.772572l-0.146286-42.569142z"  horiz-adv-x="1024" />

    
    <glyph glyph-name="guanbic" unicode="&#58917;" d="M312.907459 855.913498A503.805841 503.805841 0 0 0 512.001463 895.995611c69.558559 0 135.898846-13.385085 199.094004-40.228399a514.192082 514.192082 0 0 0 162.376447-110.225813 514.192082 514.192082 0 0 0 110.15267-162.376447c26.916456-63.122015 40.374684-129.608587 40.374685-199.094004s-13.458228-135.898846-40.374685-199.094004a514.192082 514.192082 0 0 0-110.225813-162.303304 514.192082 514.192082 0 0 0-162.303304-110.225813 503.805841 503.805841 0 0 0-199.094004-40.228399 503.805841 503.805841 0 0 0-199.094004 40.301541 514.192082 514.192082 0 0 0-162.376447 110.225814 514.192082 514.192082 0 0 0-110.152671 162.376446A503.805841 503.805841 0 0 0 0.003657 384.144091c0 69.485416 13.458228 135.898846 40.374684 199.094004a514.192082 514.192082 0 0 0 110.225814 162.303304A514.192082 514.192082 0 0 0 312.907459 855.840355V855.913498zM438.858919 420.569078v219.427631a36.571272 36.571272 0 0 1-73.142543 0v-511.997806a36.571272 36.571272 0 1 1 73.142543 0v292.570175z m219.427631 0v219.427631a36.571272 36.571272 0 0 1-73.142543 0v-511.997806a36.571272 36.571272 0 1 1 73.142543 0v292.570175z"  horiz-adv-x="1024" />

    
    <glyph glyph-name="daochuc" unicode="&#58918;" d="M1024 384a512 512 0 1 0-1024 0A512 512 0 0 0 512 896C794.781538 896 1024 666.781538 1024 384zM514.993231 659.692308c-7.089231 0-13.075692-2.363077-17.880616-7.24677l-125.243077-125.243076a25.048615 25.048615 0 0 1-7.325538-17.880616c0-6.931692 2.441846-12.839385 7.404308-17.723077a24.182154 24.182154 0 0 1 17.723077-7.325538c6.774154 0 12.681846 2.363077 17.801846 7.246769l82.392615 82.628923v-290.422154c0-6.931692 2.441846-12.839385 7.404308-17.723077a24.182154 24.182154 0 0 1 17.723077-7.325538 24.182154 24.182154 0 0 1 17.723077 7.325538 24.182154 24.182154 0 0 1 7.325538 17.723077V574.148923l82.392616-82.707692a24.182154 24.182154 0 0 1 17.880615-7.168 24.260923 24.260923 0 0 1 25.048615 25.048615c0 7.089231-2.441846 12.996923-7.246769 17.801846l-125.321846 125.243077A24.260923 24.260923 0 0 1 514.993231 659.692308z m247.650461-350.916923a24.182154 24.182154 0 0 1-17.723077-7.325539 24.182154 24.182154 0 0 1-7.325538-17.723077v-100.194461c0-6.931692-2.363077-12.839385-7.089231-17.801846a23.236923 23.236923 0 0 0-17.329231-7.325539H311.453538a24.182154 24.182154 0 0 0-17.723076 7.325539 24.182154 24.182154 0 0 0-7.325539 17.801846V283.726769a24.182154 24.182154 0 0 1-7.404308 17.723077 24.182154 24.182154 0 0 1-17.723077 7.325539 24.182154 24.182154 0 0 1-17.723076-7.325539 24.182154 24.182154 0 0 1-7.325539-17.723077v-100.194461c0-20.48 7.325538-38.281846 21.897846-53.32677 15.044923-14.572308 32.768-21.897846 53.248-21.897846h401.644308c20.48 0 38.124308 7.404308 52.854154 22.055385A72.152615 72.152615 0 0 1 787.692308 183.611077V283.726769a24.182154 24.182154 0 0 1-7.325539 17.723077 24.182154 24.182154 0 0 1-17.723077 7.325539z"  horiz-adv-x="1024" />

    
    <glyph glyph-name="xinzengc" unicode="&#58919;" d="M1024 384a512 512 0 1 0-1024 0A512 512 0 0 0 512 896C794.781538 896 1024 666.781538 1024 384z m-270.808615 34.500923H546.500923V625.191385a34.500923 34.500923 0 0 1-68.923077 0v-206.848H270.808615a34.500923 34.500923 0 0 1 0-68.923077h206.690462v-206.769231a34.500923 34.500923 0 0 1 68.923077 0V349.577846h206.769231a34.500923 34.500923 0 0 1 0 68.923077z"  horiz-adv-x="1024" />

    
    <glyph glyph-name="shixiaoc" unicode="&#58920;" d="M312.907459 855.913498A503.805841 503.805841 0 0 0 512.001463 895.995611c69.558559 0 135.898846-13.385085 199.094004-40.228399a514.192082 514.192082 0 0 0 162.376447-110.225813 514.192082 514.192082 0 0 0 110.15267-162.376447c26.916456-63.122015 40.374684-129.608587 40.374685-199.094004s-13.458228-135.898846-40.374685-199.094004a514.192082 514.192082 0 0 0-110.225813-162.303304 514.192082 514.192082 0 0 0-162.303304-110.225813 503.805841 503.805841 0 0 0-199.094004-40.228399 503.805841 503.805841 0 0 0-199.094004 40.301541 514.192082 514.192082 0 0 0-162.376447 110.225814 514.192082 514.192082 0 0 0-110.152671 162.376446A503.805841 503.805841 0 0 0 0.003657 384.144091c0 69.485416 13.458228 135.898846 40.374684 199.094004a514.192082 514.192082 0 0 0 110.225814 162.303304A514.192082 514.192082 0 0 0 312.907459 855.840355V855.913498zM512.001463 713.139252a329.141447 329.141447 0 1 1-0.073143-658.20975A329.141447 329.141447 0 0 1 512.001463 713.139252z m0-605.400834a276.186245 276.186245 0 0 0-212.844802 452.386633L687.982423 171.153004A275.015964 275.015964 0 0 0 512.001463 107.738418z m213.429942 100.863568L336.459358 597.427748a276.259387 276.259387 0 0 0 388.898905-388.825762z"  horiz-adv-x="1024" />

    
    <glyph glyph-name="zhongxinchuangjianc" unicode="&#58921;" d="M312.907459 855.913498A503.805841 503.805841 0 0 0 512.001463 895.995611c69.558559 0 135.898846-13.385085 199.094004-40.228399a514.192082 514.192082 0 0 0 162.376447-110.225813 514.192082 514.192082 0 0 0 110.15267-162.376447c26.916456-63.122015 40.374684-129.608587 40.374685-199.094004s-13.458228-135.898846-40.374685-199.094004a514.192082 514.192082 0 0 0-110.225813-162.303304 514.192082 514.192082 0 0 0-162.303304-110.225813 503.805841 503.805841 0 0 0-199.094004-40.228399 503.805841 503.805841 0 0 0-199.094004 40.301541 514.192082 514.192082 0 0 0-162.376447 110.225814 514.192082 514.192082 0 0 0-110.152671 162.376446A503.805841 503.805841 0 0 0 0.003657 384.144091c0 69.485416 13.458228 135.898846 40.374684 199.094004a514.192082 514.192082 0 0 0 110.225814 162.303304A514.192082 514.192082 0 0 0 312.907459 855.840355V855.913498z m461.968306-180.442656H359.864972a29.03759 29.03759 0 0 1-29.257017-29.183875v-415.010792c0-16.237645 13.019373-29.183875 29.257017-29.183875h415.010793a29.03759 29.03759 0 0 1 29.183875 29.257017V646.213825a28.671877 28.671877 0 0 1-29.257018 29.257017zM363.741527 234.494446V643.068695h408.501106v-408.574249H363.741527z m73.873969 188.122623h113.517228v-113.517228a16.09136 16.09136 0 0 1 16.237644-16.237645 16.09136 16.09136 0 0 1 16.164503 16.237645V422.617069H697.052098a16.09136 16.09136 0 0 1 16.237645 16.164502 16.09136 16.09136 0 0 1-16.237645 16.237645H583.534871V568.463301a16.09136 16.09136 0 0 1-16.164503 16.237645 16.09136 16.09136 0 0 1-16.237644-16.237645v-113.444085H437.688638a16.09136 16.09136 0 0 1-16.237644-16.237645c0-9.069675 7.75311-16.164502 16.237644-16.164502z m239.980686-244.515524a16.09136 16.09136 0 0 1-16.237645-16.237644v-35.620419H252.857431V534.671446h40.228399a16.09136 16.09136 0 0 1 16.164502 16.237644 16.09136 16.09136 0 0 1-16.164502 16.237645h-44.104954a29.03759 29.03759 0 0 1-29.257018-29.257017v-414.937651c0-16.237645 13.019373-29.257017 29.257018-29.257017h415.010793a29.03759 29.03759 0 0 1 29.183875 29.257017v38.838691c1.243423 9.142818-6.509686 16.237645-15.579362 16.237645z"  horiz-adv-x="1024" />

    
    <glyph glyph-name="fuzhichuangjianc" unicode="&#58922;" d="M312.907459 855.913498A503.805841 503.805841 0 0 0 512.001463 895.995611c69.558559 0 135.898846-13.385085 199.094004-40.228399a514.192082 514.192082 0 0 0 162.376447-110.225813 514.192082 514.192082 0 0 0 110.15267-162.376447c26.916456-63.122015 40.374684-129.608587 40.374685-199.094004s-13.458228-135.898846-40.374685-199.094004a514.192082 514.192082 0 0 0-110.225813-162.303304 514.192082 514.192082 0 0 0-162.303304-110.225813 503.805841 503.805841 0 0 0-199.094004-40.228399 503.805841 503.805841 0 0 0-199.094004 40.301541 514.192082 514.192082 0 0 0-162.376447 110.225814 514.192082 514.192082 0 0 0-110.152671 162.376446A503.805841 503.805841 0 0 0 0.003657 384.144091c0 69.485416 13.458228 135.898846 40.374684 199.094004a514.192082 514.192082 0 0 0 110.225814 162.303304A514.192082 514.192082 0 0 0 312.907459 855.840355V855.913498z m461.968306-180.442656H359.864972a29.03759 29.03759 0 0 1-29.257017-29.183875v-415.010792c0-16.237645 13.019373-29.183875 29.257017-29.183875h415.010793a29.03759 29.03759 0 0 1 29.183875 29.257017V646.213825a28.671877 28.671877 0 0 1-29.257018 29.257017zM363.741527 234.494446V643.068695h408.501106v-408.574249H363.741527zM712.850888 566.854165H420.573283a18.285636 18.285636 0 1 1 0-36.571272h292.277605a18.285636 18.285636 0 1 1 0 36.571272zM530.140814 457.213492H420.573283a18.285636 18.285636 0 1 1 0-36.498129h109.567531a18.285636 18.285636 0 1 1 0 36.571271z m-36.571272-109.56753H420.573283a18.285636 18.285636 0 1 1 0-36.571272h73.069401a18.285636 18.285636 0 1 1 0 36.571272z m184.02664-169.544417a16.09136 16.09136 0 0 1-16.237645-16.237644v-35.620419H252.857431V534.671446h40.228399a16.09136 16.09136 0 0 1 16.164502 16.237644 16.09136 16.09136 0 0 1-16.164502 16.237645h-44.104954a29.03759 29.03759 0 0 1-29.257018-29.257017v-414.937651c0-16.237645 13.019373-29.257017 29.257018-29.257017h415.010793a29.03759 29.03759 0 0 1 29.183875 29.257017v38.838691c1.243423 9.142818-6.509686 16.237645-15.579362 16.237645z"  horiz-adv-x="1024" />

    
    <glyph glyph-name="daohuobiangengriqic" unicode="&#58923;" d="M312.907459 855.913498A503.805841 503.805841 0 0 0 512.001463 895.995611c69.558559 0 135.898846-13.385085 199.094004-40.228399a514.192082 514.192082 0 0 0 162.376447-110.225813 514.192082 514.192082 0 0 0 110.15267-162.376447c26.916456-63.122015 40.374684-129.608587 40.374685-199.094004s-13.458228-135.898846-40.374685-199.094004a514.192082 514.192082 0 0 0-110.225813-162.303304 514.192082 514.192082 0 0 0-162.303304-110.225813 503.805841 503.805841 0 0 0-199.094004-40.228399 503.805841 503.805841 0 0 0-199.094004 40.301541 514.192082 514.192082 0 0 0-162.376447 110.225814 514.192082 514.192082 0 0 0-110.152671 162.376446A503.805841 503.805841 0 0 0 0.003657 384.144091c0 69.485416 13.458228 135.898846 40.374684 199.094004a514.192082 514.192082 0 0 0 110.225814 162.303304A514.192082 514.192082 0 0 0 312.907459 855.840355V855.913498z m-47.762081-444.487238H438.858919c25.234178 0 45.71409 20.479912 45.71409 45.714089V630.853891A45.71409 45.71409 0 0 1 438.858919 676.56798H265.145378A45.71409 45.71409 0 0 1 219.431288 630.853891V457.140349c0-25.234178 20.479912-45.71409 45.71409-45.714089z m-9.142818 219.427631a9.142818 9.142818 0 0 0 9.142818 9.142818H438.858919a9.142818 9.142818 0 0 0 9.142818-9.142818V457.140349A9.142818 9.142818 0 0 0 438.858919 447.997531H265.145378A9.142818 9.142818 0 0 0 256.00256 457.140349V630.853891z m502.854988-274.284539H585.144007A45.71409 45.71409 0 0 1 539.429917 310.855262v-173.713541c0-25.234178 20.479912-45.71409 45.71409-45.71409h173.713541c25.234178 0 45.71409 20.479912 45.71409 45.71409V310.855262a45.71409 45.71409 0 0 1-45.71409 45.71409z m9.142818-219.427631a9.142818 9.142818 0 0 0-9.142818-9.142818H585.144007a9.142818 9.142818 0 0 0-9.142818 9.142818V310.855262c0 5.046836 4.095982 9.142818 9.142818 9.142818h173.713541c5.046836 0 9.142818-4.095982 9.142818-9.142818v-173.713541zM758.857548 676.56798H534.821936a18.285636 18.285636 0 0 1-14.189653-29.695872l91.42818-114.321796 28.525592 22.893616L572.856059 639.996709h186.001489c5.046836 0 9.142818-4.095982 9.142818-9.142818v-237.713267h36.571272v237.713267A45.71409 45.71409 0 0 1 758.857548 676.56798zM411.942463 235.4453l-28.525592-22.893617 67.729996-84.55278H265.145378a9.142818 9.142818 0 0 0-9.142818 9.142818V372.880139H219.431288v-235.738418c0-25.234178 20.479912-45.71409 45.71409-45.71409h224.035611a18.285636 18.285636 0 0 1 14.189654 29.695873L411.942463 235.518442z"  horiz-adv-x="1024" />

    
    <glyph glyph-name="niantiec" unicode="&#58924;" d="M312.907459 855.913498A503.805841 503.805841 0 0 0 512.001463 895.995611c69.558559 0 135.898846-13.385085 199.094004-40.228399a514.192082 514.192082 0 0 0 162.376447-110.225813 514.192082 514.192082 0 0 0 110.15267-162.376447c26.916456-63.122015 40.374684-129.608587 40.374685-199.094004s-13.458228-135.898846-40.374685-199.094004a514.192082 514.192082 0 0 0-110.225813-162.303304 514.192082 514.192082 0 0 0-162.303304-110.225813 503.805841 503.805841 0 0 0-199.094004-40.228399 503.805841 503.805841 0 0 0-199.094004 40.301541 514.192082 514.192082 0 0 0-162.376447 110.225814 514.192082 514.192082 0 0 0-110.152671 162.376446A503.805841 503.805841 0 0 0 0.003657 384.144091c0 69.485416 13.458228 135.898846 40.374684 199.094004a514.192082 514.192082 0 0 0 110.225814 162.303304A514.192082 514.192082 0 0 0 312.907459 855.840355V855.913498z m404.990264-435.636991H524.728265c-47.469511 0-86.088774-38.619263-86.088773-86.088774v-156.671328c0-47.469511 38.619263-86.088774 86.088773-86.088774h193.242601c47.469511 0 86.088774 38.619263 86.088774 86.088774V334.187733c0 47.469511-38.619263 86.088774-86.161917 86.088774z m0-292.277604H524.728265a49.590645 49.590645 0 0 0-49.517502 49.517502V334.187733c0 27.282169 22.162191 49.590645 49.517502 49.590645h193.242601c27.282169 0 49.517502-22.235333 49.517502-49.590645v-156.671328a49.73693 49.73693 0 0 0-49.590645-49.517502z m-335.724275 73.069401H293.08583a37.302697 37.302697 0 0 0-37.156413 37.156412V602.255156a37.302697 37.302697 0 0 0 37.156413 37.229555h327.459168a37.302697 37.302697 0 0 0 37.302697-37.302697v-127.706882a18.285636 18.285636 0 1 1 36.498129 0V602.255156a73.873969 73.873969 0 0 1-73.800826 73.727684H293.158972A73.873969 73.873969 0 0 1 219.431288 602.255156v-364.03044A73.873969 73.873969 0 0 1 293.158972 164.570175h88.941333a18.285636 18.285636 0 1 1 0 36.571272z m220.890482 365.347006H310.786325a18.285636 18.285636 0 1 1 0-36.571272h292.277605a18.285636 18.285636 0 1 1 0 36.571272zM420.353856 456.774637H310.859468a18.285636 18.285636 0 1 1 0-36.571272h109.56753a18.285636 18.285636 0 1 1 0 36.571272z m-36.571272-109.567531H310.859468a18.285636 18.285636 0 1 1 0-36.571272h73.069401a18.285636 18.285636 0 1 1 0 36.571272z"  horiz-adv-x="1024" />

    
    <glyph glyph-name="fuzhic" unicode="&#58925;" d="M512-127.997806a508.706391 508.706391 0 0 0-361.982449 149.942215A508.706391 508.706391 0 0 0 0.002194 384C0.002194 520.776557 53.323109 649.507434 149.944409 746.055591A508.779534 508.779534 0 0 0 512 895.997806c136.776557 0 265.288006-53.247772 361.982449-149.942215A508.413821 508.413821 0 0 0 1023.997806 384a508.340679 508.340679 0 0 0-150.015357-362.055591A508.486964 508.486964 0 0 0 512-127.997806zM723.747664 676.42389H300.032908c-44.397524-0.073143-80.383655-32.694717-80.456798-72.996259v-438.270122c0.073143-40.228399 36.059274-72.923116 80.456798-72.923116h289.425046c13.165658 0 23.844469 9.654816 23.844469 21.577051 0 11.995377-10.678811 21.650193-23.844469 21.650193H300.032908c-18.066208 0-32.694717 13.311943-32.694717 29.695872V603.427631c0 16.38393 14.628509 29.695873 32.694717 29.695873h423.714756c18.066208 0 32.694717-13.311943 32.694717-29.695873v-305.735833c0-11.849092 10.678811-21.57705 23.844469-21.57705 13.165658 0 23.917612 9.727958 23.917612 21.650193V603.427631c-0.073143 40.228399-36.059274 72.849974-80.456798 72.923116z m-120.685197-110.006386H310.784862a18.285636 18.285636 0 1 1 0-36.571272h292.277605a18.285636 18.285636 0 1 1 0 36.571272zM420.352393 456.776831H310.858005a18.285636 18.285636 0 1 1 0-36.571272h109.56753a18.285636 18.285636 0 1 1 0 36.571272z m-36.571272-109.56753H310.858005a18.285636 18.285636 0 1 1 0-36.571272h73.069401a18.285636 18.285636 0 1 1 0 36.571272z m396.505729-125.146893H708.753442v64.877437c0 11.922235-10.678811 21.650193-23.844469 21.650192-13.165658 0-23.917612-9.727958-23.917612-21.650192v-64.877437H589.531096c-13.165658 0-23.917612-9.727958-23.917611-21.650193 0-11.995377 10.751954-21.650193 23.917611-21.650193h71.533408v-64.950578c0-11.922235 10.678811-21.57705 23.917612-21.577051 13.165658 0 23.844469 9.654816 23.844469 21.577051v64.950578h71.533408c13.165658 0 23.917612 9.654816 23.917612 21.650193 0 11.922235-10.678811 21.650193-23.917612 21.650193z"  horiz-adv-x="1024" />

    
    <glyph glyph-name="kuangquanshui1" unicode="&#58926;" d="M1013.137752 185.140213L602.416874 879.62472a32.1331 32.1331 0 0 1-56.232926-0.551303L4.646698-76.335015c-12.995004-22.839704 2.835274-51.664985 28.195221-51.664985h1430.710541c24.493613 0 40.402648 27.013856 29.140312 49.85356l-222.805248 454.431346a32.1331 32.1331 0 0 1-54.10647 6.694396l-186.104206-225.798036-7.403215 12.4437c-64.266201-4.25291-48.672196-17.877975-38.827496-20.713248 49.85356-14.570156 2.835274-33.865768-21.264552-35.677193-76.552386-5.828062-117.978883-12.522458-136.250646-16.224065-93.327755-18.823066 37.803647-49.932318 48.042136-51.980015 57.178017-11.419852 127.744825-31.109252 127.744825-31.109252C1191.444956-35.932367 1260.121582-128 1260.121582-128h-328.025399c0.393788 0-21.737097 32.605646-94.194089 75.922325-15.357732 9.135881-96.950604 46.782014-115.852427 71.19687-43.789225 56.390441 31.975585 90.571239 72.929536 97.895695 53.240137 9.608427 131.997736 14.018853 142.866284 16.302823 45.049347 9.293397-11.498609 14.491398-42.529103 20.713249-31.030494 6.300608 38.276193 18.744309 66.943959 20.792006 28.352736 2.047698-0.393788 2.126455 50.877409 10.238488z"  horiz-adv-x="1496" />

    
    <glyph glyph-name="beizhu" unicode="&#58927;" d="M512 896a512 512 0 1 1 0-1024A512 512 0 0 1 512 896z m-40.96-200.704c0 9.045333 7.338667 16.384 16.384 16.384h90.112c9.045333 0 16.384-7.338667 16.384-16.384v-90.112a16.384 16.384 0 0 0-16.384-16.384H487.424a16.384 16.384 0 0 0-16.384 16.384V695.296zM665.6 95.232c0-10.24-6.570667-18.432-14.592-18.432H424.106667c-8.021333 0-14.592 8.277333-14.592 18.432v55.296c0 10.24 6.570667 18.432 14.592 18.432h58.538666V445.44h-58.538666c-8.021333 0-14.592 8.277333-14.592 18.432v55.296c0 10.24 6.570667 18.432 14.592 18.432h153.6c8.106667 0 14.677333-8.277333 14.677333-18.432V168.96h58.538667c8.021333 0 14.592-8.277333 14.592-18.432v-55.296z"  horiz-adv-x="1024" />

    
    <glyph glyph-name="jidan1" unicode="&#58928;" d="M551.424 538.916571h224.109714L240.128-128l178.468571 469.577143H219.428571L418.596571 896H804.571429z"  horiz-adv-x="1024" />

    
    <glyph glyph-name="fenpi1" unicode="&#58929;" d="M1011.028727 580.027057l-242.882273-242.809137a42.491599 42.491599 0 0 0-60.92169 0L465.146979 579.953922a42.491599 42.491599 0 0 0 0 60.994825L708.029252 883.026532a42.491599 42.491599 0 0 0 60.994825 0l242.00465-242.882273a41.467705 41.467705 0 0 0 0-60.117202zM386.234009-127.995612H42.936994A42.491599 42.491599 0 0 0 0.006583-85.065201V258.158679c0 23.988373 18.868903 42.930411 42.930411 42.930411H386.160874c23.988373 0 42.930411-18.942038 42.930411-42.930411v-343.297015A42.491599 42.491599 0 0 0 386.160874-127.995612z m0 514.945524H42.936994A42.491599 42.491599 0 0 0 0.006583 429.880322V773.177338c0 23.988373 18.868903 42.930411 42.930411 42.930411H386.160874c23.988373 0 42.930411-18.942038 42.930411-42.930411v-343.297016a42.491599 42.491599 0 0 0-42.930411-42.93041z m171.648508-85.787687h343.297016c23.988373 0 42.930411-18.942038 42.930411-42.93041v-343.297016a42.491599 42.491599 0 0 0-42.930411-42.930411H557.882517a42.491599 42.491599 0 0 0-42.930411 42.930411V258.158679c0 23.988373 18.868903 42.930411 42.930411 42.930411z"  horiz-adv-x="1024" />

    
    <glyph glyph-name="shifouyouqian" unicode="&#58930;" d="M923.648 786.066286c0 10.24-1.901714 19.968-4.534857 29.403428l-3.657143 11.849143a108.251429 108.251429 0 0 1-9.362286 17.700572L498.614857 620.982857v1.462857L100.425143 856.868571a107.52 107.52 0 0 1-26.550857-70.875428v-805.302857c0-59.757714 48.420571-108.251429 108.251428-108.251429H815.396571c59.757714 0 108.178286 48.493714 108.178286 108.251429V296.96 786.066286z m-283.940571-566.857143a24.502857 24.502857 0 0 0 0-49.005714v-0.219429H526.482286v-57.636571h-0.146286a24.502857 24.502857 0 0 0-49.005714 0h-0.073143v57.636571l-116.736 0.146286a24.502857 24.502857 0 0 0 0 49.078857V219.428571l116.736-0.073142v49.737142H360.521143v0.219429a24.502857 24.502857 0 1 0 0 49.005714v0.073143l116.736-0.073143v1.170286L361.106286 453.12l0.146285 0.146286a24.502857 24.502857 0 0 0 32.548572 36.644571l106.349714-126.171428 103.862857 120.905142a24.502857 24.502857 0 1 0 32.548572-36.644571l0.146285-0.146286L526.482286 318.171429h113.225143a24.502857 24.502857 0 1 0 0-49.005715v-0.292571H526.482286v-49.737143h113.225143zM499.931429 677.595429l368.64 200.338285a105.179429 105.179429 0 0 1-58.368 17.554286H183.442286c-14.336 0-27.867429-2.925714-40.374857-8.118857l355.913142-210.139429v-0.146285l0.146286 0.073142 0.804572-0.438857v0.877715z"  horiz-adv-x="1024" />

    
    <glyph glyph-name="chexiaoyixuan" unicode="&#58931;" d="M312.907459 855.913498A503.805841 503.805841 0 0 0 512.001463 895.995611c69.558559 0 135.898846-13.385085 199.094004-40.228399a514.192082 514.192082 0 0 0 162.376447-110.225813 514.192082 514.192082 0 0 0 110.15267-162.376447c26.916456-63.122015 40.374684-129.608587 40.374685-199.094004s-13.458228-135.898846-40.374685-199.094004a514.192082 514.192082 0 0 0-110.225813-162.303304 514.192082 514.192082 0 0 0-162.303304-110.225813 503.805841 503.805841 0 0 0-199.094004-40.228399 503.805841 503.805841 0 0 0-199.094004 40.301541 514.192082 514.192082 0 0 0-162.376447 110.225814 514.192082 514.192082 0 0 0-110.152671 162.376446A503.805841 503.805841 0 0 0 0.003657 384.144091c0 69.485416 13.458228 135.898846 40.374684 199.094004a514.192082 514.192082 0 0 0 110.225814 162.303304A514.192082 514.192082 0 0 0 312.907459 855.840355V855.913498z m489.835615-501.392137v4.461695c0 114.687508-81.992791 201.141995-190.755754 201.141995H299.083518l77.384811 76.507101a23.332471 23.332471 0 1 1-32.767859 33.206714L226.745543 554.273647a23.186186 23.186186 0 0 1-0.146286-32.987287l0.073143-0.146285 115.857789-116.150359a23.332471 23.332471 0 1 1 33.06043 32.914144L300.326941 513.460108h311.587237c82.212219 0 144.163954-66.41343 144.163953-154.477052v-4.461695c0-85.064778-59.24546-144.383381-144.090811-144.383382H242.76376a23.332471 23.332471 0 1 1 0-46.664942h369.22356c110.518383 0 190.755754 80.310513 190.755754 190.975181z"  horiz-adv-x="1024" />

    
    <glyph glyph-name="xuanzegaoliang" unicode="&#58932;" d="M512-127.997806a508.706391 508.706391 0 0 0-361.982449 149.942215A508.706391 508.706391 0 0 0 0.002194 384C0.002194 520.776557 53.323109 649.507434 149.944409 746.055591A508.779534 508.779534 0 0 0 512 895.997806c136.776557 0 265.288006-53.247772 361.982449-149.942215A508.413821 508.413821 0 0 0 1023.997806 384a508.340679 508.340679 0 0 0-150.015357-362.055591A508.486964 508.486964 0 0 0 512-127.997806z m0.58514 804.933693a22.893616 22.893616 0 0 1 22.235334 22.747332v0.146285l0.073142 0.731425-0.073142 0.511998v60.781454c0 0.29257 0.146285 0.58514 0.073142 0.87771a22.893616 22.893616 0 0 1-23.551899 22.235333 22.893616 22.893616 0 0 1-22.674188-23.113043v-0.146285l-0.146286-0.731426 0.073143-0.511998v-60.781453l-0.073143-0.877711a23.113044 23.113044 0 0 1 24.13704-21.942763z m224.474467-79.067089a23.186186 23.186186 0 0 1 16.530215 8.04568l42.130105 44.178096c4.388553 4.31541 7.094827 10.239956 6.802256 16.822785a23.113044 23.113044 0 0 1-24.137039 21.86962 23.186186 23.186186 0 0 1-16.603357-8.045679l-42.056963-44.178097a22.308476 22.308476 0 0 1-6.875399-16.822785 23.039901 23.039901 0 0 1 24.137039-21.86962z m-223.816184 8.777105c110.152671 0 199.752287-87.69791 199.752287-195.436877a194.559166 194.559166 0 0 0-126.097745-181.832363l0.29257-0.877711a20.479912 20.479912 0 0 1-11.995377-18.651348h-2.194277v-47.762082H450.413978V209.920746h-2.267419l0.146285 0.804568a20.479912 20.479912 0 0 1-12.94623 18.066208l0.877711 2.047992a195.071164 195.071164 0 0 0-122.733189 180.442655c0 107.812109 89.599616 195.510019 199.679145 195.510019z m41.10611-579.727801H469.065327a18.431921 18.431921 0 0 0-18.578206 18.212493v71.752835h122.440618v-71.752835a18.431921 18.431921 0 0 0-18.578206-18.212493zM404.261033 195.438522v-150.307927c0.073143-35.035278 29.03759-63.341443 64.804294-63.414585H554.422675a64.219153 64.219153 0 0 1 64.804294 63.414585V193.829386a239.029833 239.029833 0 0 1 139.994829 217.233355c0 132.753717-110.298956 240.785254-245.83209 240.785254-135.606276 0-245.905232-108.031537-245.905231-240.712111a239.614973 239.614973 0 0 1 136.849699-215.770504z m-178.467806 455.092907l0.658283-0.658283c0.219428-0.29257 0.438855-0.58514 0.731425-0.731425l41.764392-43.885526h0.073143a23.113044 23.113044 0 0 1 40.082114 16.237644 22.235333 22.235333 0 0 1-6.436544 14.482224l0.073143 0.073143-0.731426 0.731425-0.658283 0.731425-41.764392 43.885527-0.146285-0.073143A23.113044 23.113044 0 0 1 219.429825 665.086795a22.308476 22.308476 0 0 1 6.436544-14.482223h-0.073142z"  horiz-adv-x="1024" />

    
    <glyph glyph-name="peisongfahuo" unicode="&#58933;" d="M312.907459 855.913498A503.805841 503.805841 0 0 0 512.001463 895.995611c69.558559 0 135.898846-13.385085 199.094004-40.228399a514.192082 514.192082 0 0 0 162.376447-110.225813 514.192082 514.192082 0 0 0 110.15267-162.376447c26.916456-63.122015 40.374684-129.608587 40.374685-199.094004s-13.458228-135.898846-40.374685-199.094004a514.192082 514.192082 0 0 0-110.225813-162.303304 514.192082 514.192082 0 0 0-162.303304-110.225813 503.805841 503.805841 0 0 0-199.094004-40.228399 503.805841 503.805841 0 0 0-199.094004 40.301541 514.192082 514.192082 0 0 0-162.376447 110.225814 514.192082 514.192082 0 0 0-110.152671 162.376446A503.805841 503.805841 0 0 0 0.003657 384.144091c0 69.485416 13.458228 135.898846 40.374684 199.094004a514.192082 514.192082 0 0 0 110.225814 162.303304A514.192082 514.192082 0 0 0 312.907459 855.840355V855.913498zM452.024577 250.658949c0 1.170281 0 2.413704-0.438855 3.583984 0 0.438855-0.365713 1.170281-0.365713 1.609136 0 0.365713-0.438855 1.170281-0.438855 1.609136-0.365713 0.731425-0.731425 1.170281-0.731426 1.974849-0.438855 0.438855-0.438855 0.804568-0.438855 1.243423-0.804568 0.731425-1.243423 1.974849-2.413704 2.779417l-58.148322 57.197469a16.96907 16.96907 0 0 1-23.625042 0 16.822785 16.822785 0 0 1 0-23.551899l28.818163-28.818162H222.503275a16.6765 16.6765 0 0 1-16.822785-16.822785c0-9.654816 7.606825-16.822785 16.822785-16.822785h172.177548L365.716376 205.822569a16.822785 16.822785 0 0 1 0-23.625041 16.603357 16.603357 0 0 1 23.698184 0l57.709467 57.636324c0.804568 0.804568 1.609136 1.609136 2.413704 2.779417 0.365713 0.438855 0.365713 0.804568 0.731425 1.243423 0.438855 0.731425 0.877711 1.170281 0.877711 1.974849 0.365713 0.438855 0.365713 1.243423 0.365712 1.609136 0 0.365713 0.438855 1.170281 0.438856 1.609136v1.609136z m340.844254 273.553113l-50.687783 97.279583c-12.36109 23.771327-43.227243 42.715246-70.582555 42.715246H360.596397c-26.916456 0-57.78261-18.505064-70.582554-42.715246l-50.760925-94.646451c-10.971382-20.260485-19.382774-55.076335-19.382775-78.408807v-88.063623a18.285636 18.285636 0 0 1 18.505064-18.505063 18.285636 18.285636 0 0 1 18.578206 18.505063V448.363244c0 1.316566 0.438855 3.510842 0.438855 5.266263h517.410354a42.788388 42.788388 0 0 0 0.438856-7.021684v-317.438639a18.285636 18.285636 0 0 0-18.505064-18.505064H275.019621a18.651349 18.651349 0 0 0-18.505063 18.505064v22.45476a18.285636 18.285636 0 0 1-18.578206 18.431921 18.285636 18.285636 0 0 1-18.505064-18.431921v-22.893616a54.856908 54.856908 0 0 1 55.149478-55.076335h481.277937a55.076335 55.076335 0 0 1 55.149478 55.076335V445.803255a177.736381 177.736381 0 0 1-18.13935 78.408807z m-520.921196-14.994222l50.687782 95.085307a49.224932 49.224932 0 0 0 37.96098 22.893616h311.440951c13.677656 0 31.305009-10.971382 37.960981-22.893616l50.687782-97.279583c2.633132-4.827408 4.90055-10.605669 6.582829-17.188498L264.92595 490.785919c2.194276 7.021684 4.90055 14.116511 7.094827 18.505064z"  horiz-adv-x="1024" />

    
    <glyph glyph-name="zhuanyibaopeisong" unicode="&#58934;" d="M312.907459 855.913498A503.805841 503.805841 0 0 0 512.001463 895.995611c69.558559 0 135.898846-13.385085 199.094004-40.228399a514.192082 514.192082 0 0 0 162.376447-110.225813 514.192082 514.192082 0 0 0 110.15267-162.376447c26.916456-63.122015 40.374684-129.608587 40.374685-199.094004s-13.458228-135.898846-40.374685-199.094004a514.192082 514.192082 0 0 0-110.225813-162.303304 514.192082 514.192082 0 0 0-162.303304-110.225813 503.805841 503.805841 0 0 0-199.094004-40.228399 503.805841 503.805841 0 0 0-199.094004 40.301541 514.192082 514.192082 0 0 0-162.376447 110.225814 514.192082 514.192082 0 0 0-110.152671 162.376446A503.805841 503.805841 0 0 0 0.003657 384.144091c0 69.485416 13.458228 135.898846 40.374684 199.094004a514.192082 514.192082 0 0 0 110.225814 162.303304A514.192082 514.192082 0 0 0 312.907459 855.840355V855.913498z m398.480578-336.455701h-141.896535V597.793461c0 26.916456-24.42961 44.909522-48.932362 44.909522H195.294249c-29.33016 0-48.932362-22.454761-48.932362-44.909522V197.484319c0-13.458228 14.701651-26.916456 29.33016-26.916456h73.435114c0-44.909522 39.131261-76.360816 88.063622-76.360815 48.932362 0 88.063623 35.912989 92.891031 76.360815h154.184482c4.90055-44.909522 44.031811-76.360816 92.89103-76.360815 49.005504 0 88.136765 35.912989 92.964173 76.360815h78.262522c14.701651 0 29.403303 13.458228 29.403303 26.916456V366.663023c0 85.357348-73.361971 152.721631-166.326145 152.721631z m127.194883-312.976945h-83.163072c-4.90055 0-9.801101 0-14.628509-4.461695-4.973693-4.534838-4.973693-8.996533-4.973692-13.458228v-4.534838c0-31.451294-24.42961-53.906055-58.660321-53.906054s-58.733463 22.454761-58.733462 53.906054v4.534838c0 4.461695 0 8.92339-4.900551 13.458228-4.90055 4.461695-4.90055 4.461695-9.727958 4.461695H415.380163c-4.90055 0-9.801101 0-14.628509-4.461695-4.973693-4.534838-4.973693-8.996533-4.973693-13.458228v-4.534838c0-31.451294-24.42961-53.906055-58.66032-53.906054-34.303853 0-58.733463 22.454761-58.733463 53.906054v4.534838c0 4.461695 0 8.92339-4.90055 13.458228-4.90055 4.461695-9.727958 4.461695-14.628509 4.461695H175.545762V597.866603c0 4.534838 4.90055 13.458228 14.701651 13.458228H515.65859c9.801101-4.461695 14.701651-8.92339 14.701651-13.458228v-96.475015c0-8.92339 9.801101-17.919923 19.602202-17.919923h156.525043c73.361971 0 132.095434-53.906055 132.095434-116.808642v-160.182171zM569.491502 322.704354v69.119704c0 8.996533-9.727958 17.993066-19.529059 17.993066s-19.602202-8.996533-19.602202-17.993066v-87.11277c0-13.458228 9.801101-17.993066 19.602202-17.993065H659.749401c9.801101 0 19.529059 8.996533 19.529059 17.993065s-9.727958 17.993066-19.529059 17.993066H569.491502z"  horiz-adv-x="1024" />

    
    <glyph glyph-name="daichulishixiang_" unicode="&#58976;" d="M3993.6 384m-512 0a512 512 0 1 1 1024 0 512 512 0 1 1-1024 0ZM2048 281.6m-409.6 0a409.6 409.6 0 1 1 819.2 0 409.6 409.6 0 1 1-819.2 0ZM307.2 384m-307.2 0a307.2 307.2 0 1 1 614.4 0 307.2 307.2 0 1 1-614.4 0Z"  horiz-adv-x="4505" />

    
    <glyph glyph-name="daichulishixiang_1" unicode="&#58977;" d="M512 384m-512 0a512 512 0 1 1 1024 0 512 512 0 1 1-1024 0ZM2457.6 281.6m-409.6 0a409.6 409.6 0 1 1 819.2 0 409.6 409.6 0 1 1-819.2 0ZM4198.4 384m-307.2 0a307.2 307.2 0 1 1 614.4 0 307.2 307.2 0 1 1-614.4 0Z"  horiz-adv-x="4505" />

    
    <glyph glyph-name="daifahuodingdan" unicode="&#58978;" d="M1186.762105 883.604211c74.051368 0 137.539368-51.577263 126.976-123.688422v-762.556631c0-61.817263-52.924632-123.634526-126.976-123.634526H149.827368c-63.434105 0-126.922105 51.523368-126.922105 123.634526V759.915789c0 61.817263 52.870737 123.634526 126.976 123.634527H1186.762105z m-380.928-443.122527c0-10.347789-10.563368-10.347789-10.563368-10.347789h-232.771369c-10.563368 0-10.563368 10.347789-10.563368 10.347789V832.026947h253.898105v-391.545263z m52.924632 442.799158H499.011368v-442.799158c0-30.935579 31.797895-61.871158 63.488-61.871158h232.825264c31.690105 0 63.434105 30.935579 63.434105 61.871158V883.280842z"  horiz-adv-x="1347" />

    
    <glyph glyph-name="daitijiaodingdan" unicode="&#58979;" d="M16.725333 879.36a27.050667 27.050667 0 0 0 11.136 8.533333c10.24 5.888 21.034667 7.381333 29.312 7.381334 8.490667 0 14.336-1.578667 14.336-1.578667l1091.498667-491.605333s32.512-18.218667 30.293333-53.76c-2.218667-35.328-36.650667-48.213333-36.650666-48.213334l-368.896-106.154666-69.461334-285.269334s-14.250667-33.962667-49.066666-36.522666a68.949333 68.949333 0 0 0-4.864-0.170667c-31.274667 0-44.970667 22.186667-44.970667 22.186667l-129.024 202.837333-329.088-109.44a81.066667 81.066667 0 0 0-8.661333-0.512c-47.189333 0-56.32 45.568-56.32 45.568S3.157333 810.453333 0.426667 833.024C-2.346667 855.552 9.557333 870.485333 9.557333 870.485333 11.776 873.898667 14.208 876.8 16.725333 879.36z m0 0a26.794667 26.794667 0 0 1 0.853334-33.621333L492.373333 317.141333a27.264 27.264 0 0 1 38.229334-3.285333 26.794667 26.794667 0 0 1 3.242666 37.930667L59.093333 880.384A27.306667 27.306667 0 0 1 27.861333 887.936C24.021333 885.717333 20.266667 882.944 16.725333 879.36z"  horiz-adv-x="1194" />

    
    <glyph glyph-name="daiguanzhangchuhuotibao" unicode="&#58980;" d="M1218.950095 725.820952v-197.290666h-443.245714c-76.55619 0-138.48381-63.097905-138.48381-140.921905 0-77.872762 61.927619-141.019429 138.48381-141.019429h443.245714v-197.290666c0-93.42781-74.410667-169.20381-166.229333-169.20381H166.229333C74.410667-119.856762 0-44.129524 0 49.347048V725.820952C0 819.297524 74.410667 895.024762 166.229333 895.024762h886.491429c91.818667 0 166.229333-75.727238 166.229333-169.20381z m-470.942476-338.261333c0 46.713905 37.205333 84.601905 83.090286 84.601905s83.090286-37.888 83.090285-84.601905c0-46.713905-37.205333-84.553143-83.090285-84.553143s-83.090286 37.839238-83.090286 84.553143z"  horiz-adv-x="1219" />

    
    <glyph glyph-name="yonghulihua" unicode="&#58981;" d="M512 429.056c-226.235733 0-409.6-212.855467-409.6-525.9264 0-10.376533 0.2048-20.821333 0.682667-31.1296h817.834666c0.477867 10.308267 0.682667 20.753067 0.682667 31.1296C921.6 216.200533 738.167467 429.056 512 429.056z m3.754667 58.231467c114.210133 0 206.848 91.477333 206.848 204.3904C722.5344 804.522667 629.896533 896 515.6864 896 401.6128 896 309.0432 804.522667 309.0432 691.677867c0-112.8448 92.5696-204.3904 206.711467-204.3904z"  horiz-adv-x="1024" />

    
    <glyph glyph-name="Ceston" unicode="&#58982;" d="M0-116.57216V738.46784S537.84576 1027.8912 1195.86816 815.59552C1835.33568 609.32096 2364.49792 896 2364.49792 896l0.45056-814.8992s-473.9072-341.44256-1154.62144-125.7472C452.44416 195.46112 0-116.57216 0-116.57216z m196.73088 404.56192c34.07872-107.80672 184.48384-142.21312 291.18464-68.97664l16.384 44.40064s-130.08896-67.09248-196.15744 9.17504c-65.82272 75.93984-1.96608 207.0528 50.95424 255.26272 83.1488 75.81696 185.344 36.0448 185.344 36.0448l22.20032 41.86112s-131.64544 49.11104-246.86592-24.45312c-106.496-67.9936-156.38528-187.84256-123.04384-293.31456z m599.94112-67.584c31.00672-24.08448 100.7616-53.98528 167.40352-28.54912 42.84416 16.384 78.52032 67.50208 58.49088 130.17088-21.17632 66.3552-83.06688 83.5584-53.4528 132.096 32.1536 52.6336 110.7968 22.1184 110.7968 22.1184l18.10432 45.13792s-57.5488 19.74272-108.1344 13.9264c-28.8768-3.35872-91.29984-23.71584-106.9056-78.88896-27.68896-97.77152 80.44544-128.8192 41.7792-199.8848-29.4912-50.46272-91.87328-10.6496-110.46912 3.8912-5.16096-15.40096-17.6128-40.01792-17.6128-40.01792z m279.92064 48.16896c-26.624-68.48512 17.48992-117.63712 133.24288-73.89184l18.8416 43.70432c-71.43424-27.56608-85.68832-6.43072-75.28448 18.0224l87.57248 215.08096h52.8384l46.57152 47.59552H1259.9296l39.19872 97.36192h-80.03584l-39.81312-97.36192h-62.54592l-19.98848-47.59552h63.73376l-83.84512-202.91584z m737.36192-88.92416h80.32256l109.32224 268.20608c23.59296 17.57184 50.3808 27.648 73.23648 29.57312 37.60128 3.03104 23.63392-30.3104 5.24288-72.82688l-90.43968-224.95232h82.00192l92.7744 238.592c23.3472 58.90048 15.72864 113.664-48.90624 113.664-47.84128 0-93.51168-32.768-93.51168-32.768l12.98432 33.09568h-79.79008l-143.23712-352.58368z m-237.28128 127.7952c-10.89536-55.78752-12.98432-119.93088 71.2704-127.7952 68.23936-6.38976 118.784 19.2512 146.92352 50.42176 26.58304 29.40928 65.78176 118.5792 80.2816 180.96128 20.76672 89.088-31.62112 121.81504-91.21792 121.81504-61.0304 0-98.26304-21.87264-135.53664-64.96256-37.31456-43.04896-62.95552-115.58912-71.68-160.44032z m-344.8832-116.89984s64.7168-21.42208 129.88416-10.89536c133.40672 21.54496 208.73216 137.0112 235.27424 244.61312 27.89376 113.29536-84.82816 127.87712-155.8528 93.96224l38.17472 98.22208h-76.51328l-170.96704-425.90208z m-693.8624 183.25504c-35.92192-97.03424-2.17088-174.08 73.80992-187.51488 104.2432-18.432 160.84992 23.3472 160.84992 23.3472l20.48 49.43872s-97.8944-54.4768-169.82016-15.23712c-39.5264 21.54496-9.0112 90.64448-9.0112 90.64448l205.6192-0.65536s66.72384 131.35872-2.00704 177.84832c-15.03232 10.36288-41.65632 22.528-68.52608 23.63392-63.8976 0.49152-157.81888-16.62976-211.39456-161.50528z m8.02816 124.43648l59.55584 14.7456 106.45504 94.33088h-96.01024l-70.0416-109.07648z m88.76032-112.80384s31.3344 97.77152 93.22496 97.77152c62.13632 0 44.35968-70.77888 30.1056-98.87744l-123.33056 1.10592z m784.95744 80.11776s143.44192 62.464 95.8464-72.33536c-33.83296-96.01024-113.00864-159.744-191.32416-165.80608l95.4368 238.14144z m360.98048 26.624c42.88512 0 37.0688-49.23392-6.30784-151.38816-42.27072-99.9424-58.85952-127.67232-107.64288-127.67232-45.6704 0-28.42624 59.55584 10.97728 150.97856 36.29056 84.00896 57.5488 128.12288 102.97344 128.12288z"  horiz-adv-x="2375" />

    
    <glyph glyph-name="huarunyibao" unicode="&#58983;" d="M103.154526 257.347368H241.448421V714.374737a478.800842 478.800842 0 0 1 83.968 125.682526l3.772632 8.29979h-162.762106l-1.616842-3.018106c-32.875789-58.745263-79.225263-110.214737-137.485473-152.899368l-2.371369-1.778526v-113.394527L32.336842 579.691789a447.757474 447.757474 0 0 1 70.76379 29.210948v-351.555369zM623.454316 669.372632V848.410947H485.214316V611.974737a2277.537684 2277.537684 0 0 0-168.04379-59.392l-4.096-1.239579V441.667368l7.114106 1.616843c50.661053 12.180211 104.825263 27.486316 165.025684 46.618947v-133.281684c0-64.026947 40.259368-99.328 113.448421-99.328h274.539789v93.507368H653.743158c-18.755368 0-30.342737 12.665263-30.342737 33.145263V537.492211a4127.258947 4127.258947 0 0 1 246.298947 100.513684l3.449264 1.616842V787.671579l-8.353685-4.20379a5024.067368 5024.067368 0 0 0-241.394526-114.095157M1126.238316 353.926737c-1.077895-175.696842-21.773474-319.326316-61.44-426.738526l-2.964211-7.868632h138.778948l1.401263 3.772632c35.408842 95.555368 55.403789 248.454737 56.32 430.726736l0.107789 5.928421h-132.203789v-5.820631zM1313.738105-80.680421h138.34779V637.466947h-138.34779zM1372.698947 688.505263l1.509053-3.395368h133.173895l-2.533053 7.706947c-17.785263 54.810947-28.995368 93.237895-39.936 150.851369l-0.91621 4.742736h-136.784843l1.185685-6.844631c7.760842-45.217684 18.970947-98.735158 44.301473-153.061053M1813.288421 162.654316h-93.130105v134.197895h93.130105v88.387368h-93.130105V519.329684h93.130105v88.387369H1502.585263v-88.387369h93.076211v-134.197895H1502.585263v-88.387368h93.076211v-134.197895H1502.585263v-88.387368h310.757053zM1872.734316 844.476632c-21.827368 0-46.780632-2.425263-74.105263-7.168l-219.028211-36.864V710.063158l173.379369 11.533474c7.760842 0.485053 15.198316 0.754526 22.096842 0.754526 61.332211 0 88.710737-20.965053 88.710736-67.745684v-622.645895c0-31.905684-22.096842-34.492632-28.833684-34.492632h-58.368v-78.147368h165.456842c29.803789 0 59.984842 22.042947 59.984842 64.134737V727.525053c0 78.686316-42.307368 116.951579-129.347368 116.951579M518.197895 237.568H379.957895v-56.912842H24.953263v-93.507369H379.957895v-170.091789h138.24v170.091789h355.004631v93.507369H518.197895zM1101.015579 829.116632l-6.467368 0.754526v-118.784l5.227789-0.538947c54.541474-5.551158 96.902737-10.940632 151.713684-22.150737l7.006316-1.401263V800.929684l-4.581053 1.077895a1270.460632 1270.460632 0 0 1-152.899368 27.109053M1101.015579 611.435789l-6.467368 0.808422V493.406316l5.227789-0.538948c54.379789-5.497263 96.687158-10.886737 151.713684-22.096842l7.006316-1.455158V583.248842l-4.581053 1.077895a1278.490947 1278.490947 0 0 1-152.899368 27.055158M3025.381053 193.212632l-0.862316-186.906948h-250.718316c-32.390737 0-43.439158 5.012211-43.870316 38.912l0.646737 198.871579c27.378526 9.162105 155.755789 28.079158 198.76379 26.570105 100.244211-3.664842 96.040421-77.392842 96.040421-77.392842m-35.570527 177.152c-71.572211-1.347368-201.997474-22.851368-261.173894-38.588631l-1.077895 31.366737h-121.96379l-0.269473-350.962527c0-70.009263 39.181474-86.177684 84.075789-86.177684h459.668211c1.077895 70.063158 4.311579 202.374737 4.042105 223.663158-1.131789 97.172211 12.611368 223.663158-163.301053 220.698947M2515.914105 842.213053H2384.842105l0.538948-291.516632h-44.894316l-0.700632 217.088h-120.72421L2218.307368 77.338947h120.724211l0.970105 379.526737h44.840421l-1.724631-531.887158h131.179789l0.862316 531.456 61.817263 0.215579s6.090105 51.2 9.377684 93.561263l-70.979368-0.053894 0.538947 292.055579zM2943.784421 744.663579c30.288842-51.2 61.44-116.628211 86.339368-183.511579-62.841263-13.312-171.816421-33.306947-259.449263-26.408421-26.839579 2.155789-45.109895 10.617263-33.953684 48.074105 39.235368 131.826526 175.912421 233.903158 175.912421 233.903158L2796.328421 880.855579s-164.917895-159.582316-191.811368-327.78779c-14.551579-91.782737 54.757053-116.628211 100.190315-121.370947 120.293053-12.557474 301.810526 32.714105 349.615158 48.181895 13.635368-49.421474 17.893053-67.422316 17.893053-67.422316l99.705263 16.815158s-33.253053 197.416421-126.976 344.064c0 0-48.720842-12.719158-101.160421-28.672M4086.999579 149.504h-114.256842l33.68421-125.143579-178.930526-0.215579-0.377263 203.021474h305.259789l0.970106 100.136421h-305.421474l-0.269474 155.755789 195.476211 0.161685V583.356632H3482.354526v-100.136421h199.949474v-155.917474h-316.146526l-0.431158-100.136421 316.30821-0.161684-0.215579-202.644211h-360.717473l-0.10779-102.777263h874.118737l0.10779 102.777263h-76.692211zM3831.646316 792.522105l0.053895 60.416H3687.477895l-0.269474-82.405052-243.819789-36.109474 0.107789 75.452632h-139.587368l-0.970106-358.723369h139.210106l0.269473 24.791579V583.302737h-0.377263l0.485053 48.774737c63.865263 6.197895 269.635368 35.947789 449.643789 43.493052 116.412632 4.850526 165.402947 13.473684 170.576842-73.566315h0.538948v-129.455158h-0.377263l-0.161685-37.133474h133.874527s1.401263 87.740632 0.700631 146.485895c-4.311579 191.326316-58.906947 257.401263-365.621894 210.566737"  horiz-adv-x="4203" />

    
    <glyph glyph-name="jiantouup" unicode="&#58938;" d="M0.96 383.68C0.96 101.056 229.76-128 512-128c282.304 0 511.104 229.056 511.104 511.68C1023.104 666.176 794.304 895.296 512 895.296 229.76 895.296 0.96 666.176 0.96 383.68z m238.464-145.024a31.808 31.808 0 0 0 0 45.12L483.84 528.64a31.424 31.424 0 0 0 28.16 8.32c9.856 1.728 20.416-0.64 28.096-8.32l244.544-244.864a32 32 0 0 0-45.184-45.12L512 466.304 284.608 238.72a31.808 31.808 0 0 0-45.184 0z"  horiz-adv-x="1024" />

    
    <glyph glyph-name="jiantoudown" unicode="&#58939;" d="M1024 384A512 512 0 1 0 0 384a512 512 0 0 0 1024 0zM64 384a448 448 0 0 1 448-448 448 448 0 1 1-448 448z m721.088 145.088a31.808 31.808 0 0 0 0-45.184L540.16 238.912a31.552 31.552 0 0 0-28.16-8.32 31.616 31.616 0 0 0-28.16 8.32L238.784 483.904a32 32 0 1 0 45.312 45.184L512 301.248l227.84 227.84a31.936 31.936 0 0 0 45.312 0z"  horiz-adv-x="1024" />

    
    <glyph glyph-name="jiantoudown1" unicode="&#58940;" d="M0.96 384.32C0.96 666.944 229.76 896 512 896c282.304 0 511.104-229.056 511.104-511.68 0-282.496-228.8-511.616-511.104-511.616-282.24 0-511.04 229.12-511.04 511.616zM239.36 529.344a31.808 31.808 0 0 1 0-45.12l244.48-244.864c7.744-7.68 18.24-10.048 28.16-8.32 9.856-1.728 20.416 0.64 28.096 8.32l244.544 244.864a32 32 0 0 1-45.184 45.12L512 301.696 284.608 529.28a31.808 31.808 0 0 1-45.184 0z"  horiz-adv-x="1024" />

    
    <glyph glyph-name="jiantouup1" unicode="&#58941;" d="M1024 384A512 512 0 1 1 0 384a512 512 0 0 1 1024 0zM64 384a448 448 0 0 0 448 448 448 448 0 1 0-448-448z m721.088-145.088a31.808 31.808 0 0 1 0 45.184L540.16 529.088a31.552 31.552 0 0 1-28.16 8.32 31.616 31.616 0 0 1-28.16-8.32L238.784 284.096a32 32 0 1 1 45.312-45.184L512 466.752l227.84-227.84a31.936 31.936 0 0 1 45.312 0z"  horiz-adv-x="1024" />

    
    <glyph glyph-name="delete1" unicode="&#59000;" d="M512-128A512 512 0 1 0 512 896a512 512 0 0 0 0-1024z m189.147429 617.910857a21.577143 21.577143 0 0 1-21.650286-20.918857v-312.905143c0-11.556571-9.508571-20.626286-21.065143-20.626286H365.714286a20.992 20.992 0 0 0-21.211429 20.626286v313.782857c0 11.556571-8.484571 20.918857-20.041143 20.918857-11.556571 0-20.041143-9.362286-20.041143-20.918857v-313.782857c0-34.523429 26.624-64.658286 61.147429-64.658286h292.571429a66.121143 66.121143 0 0 1 64.512 64.658286V468.992c0.146286 11.410286-9.947429 20.918857-21.504 20.918857z m-232.594286-250.294857V469.577143c0 11.556571-8.484571 20.918857-20.041143 20.918857-11.556571 0-20.041143-9.362286-20.041143-20.918857v-229.814857c0-11.556571 8.484571-20.918857 20.041143-20.918857a20.041143 20.041143 0 0 1 20.041143 20.772571z m126.829714 0V469.577143a21.650286 21.650286 0 0 1-21.650286 20.918857 21.650286 21.650286 0 0 1-21.650285-20.918857v-229.814857c0-11.556571 10.24-20.918857 21.650285-20.918857 11.410286 0 21.650286 9.216 21.650286 20.772571z m188.269714 333.531429H679.497143v42.569142c0 34.523429-28.233143 60.708571-62.464 60.708572L407.405714 676.571429c-34.523429 0-62.902857-26.185143-62.902857-60.708572v-42.715428H240.347429c-11.556571 0-20.918857-8.484571-20.918858-20.041143 0-11.556571 9.362286-20.041143 20.918858-20.041143h543.305142c11.556571 0 20.918857 8.484571 20.918858 20.041143 0 11.556571-9.362286 20.041143-20.918858 20.041143z m-147.748571 0H385.170286v42.569142c0 11.556571 10.825143 20.772571 22.381714 20.772572h209.481143c11.410286 0 19.017143-9.069714 19.017143-20.772572l-0.146286-42.569142z"  horiz-adv-x="1024" />

    
    <glyph glyph-name="delete2" unicode="&#59001;" d=""  horiz-adv-x="1024" />

    
    <glyph glyph-name="delete" unicode="&#58943;" d="M829.7472 561.9712a36.1472 36.1472 0 0 1-36.352-35.2256v-525.6192c0-19.456-15.9744-34.7136-35.4304-34.7136H266.24a35.328 35.328 0 0 0-35.6352 34.7136V528.2816c0 19.456-14.336 35.1232-33.6896 35.1232-19.456 0-33.6896-15.7696-33.6896-35.1232V1.024c0-58.0608 44.7488-108.6464 102.8096-108.6464h491.52c57.9584 0 108.3392 50.5856 108.3392 108.544V526.848c0.2048 19.2512-16.6912 35.2256-36.1472 35.2256zM438.9888 141.312V527.7696c0 19.456-14.336 35.1232-33.6896 35.1232-19.456 0-33.6896-15.6672-33.6896-35.1232v-386.048a33.6896 33.6896 0 1 1 67.3792-0.2048z m213.0944 0V527.7696a36.352 36.352 0 0 1-36.352 35.1232 36.352 36.352 0 0 1-36.352-35.1232v-386.048c0-19.456 17.2032-35.2256 36.352-35.2256 19.1488 0 36.352 15.5648 36.352 34.9184z m316.3136 560.3328H793.3952v71.5776c0 57.9584-47.4112 101.9904-104.96 101.9904L336.2816 875.52c-57.9584 0-105.6768-44.032-105.6768-101.9904v-71.68H55.6032c-19.456 0-35.1232-14.336-35.1232-33.792s15.7696-33.6896 35.1232-33.6896h912.7936c19.456 0 35.1232 14.336 35.1232 33.792 0 19.3536-15.7696 33.5872-35.1232 33.5872z m-248.2176 0H298.9056v71.5776c0 19.456 18.2272 34.816 37.5808 34.816h351.9488c19.2512 0 31.9488-15.2576 31.9488-34.816l-0.2048-71.5776z"  horiz-adv-x="1024" />

    
    <glyph glyph-name="shanchu" unicode="&#59003;" d=""  horiz-adv-x="1024" />

    
    <glyph glyph-name="kafei" unicode="&#59004;" d="M144.62781 222.890667C-99.913143 350.256762-23.405714 875.032381 302.616381 895.366095h25.453714c50.907429 5.12 45.83619-40.764952 30.524953-86.601143C297.496381 620.251429 159.939048 508.196571 226.157714 253.464381c15.262476-66.218667 20.382476-86.601143-81.529904-30.573714z m341.333333 590.994285c91.721143-86.649905 96.792381-193.584762 76.458667-326.070857-117.174857-66.218667-214.016-183.393524-234.349715-305.688381-56.07619-15.262476-66.267429 10.24-76.458666 66.267429-45.83619 224.158476 142.677333 310.759619 142.677333 529.798095 0 66.218667-15.311238 137.557333 91.672381 35.693714zM1071.835429 182.125714c-5.071238-254.73219-468.699429-438.125714-646.972953-188.464762-45.83619 61.098667-30.573714 71.289905 45.836191 91.672381 178.322286 50.95619 326.070857-5.071238 509.464381 157.988572 76.409905 76.361143 96.792381 127.317333 91.672381-61.196191z m-687.737905-5.071238c30.573714 239.420952 443.245714 392.289524 606.256762 234.349714 50.907429-50.95619 35.644952-66.218667-5.12-106.983619-127.366095-127.366095-326.022095-91.672381-519.655619-173.202285-40.71619-15.311238-101.912381-106.983619-81.481143 45.83619z"  horiz-adv-x="1072" />

    


  </font>
</defs>
</svg>
